<?xml version="1.0" encoding="UTF-8" standalone="no"?>
<svg width="38px" height="26px" viewBox="0 0 38 26" version="1.1" xmlns="http://www.w3.org/2000/svg" xmlns:xlink="http://www.w3.org/1999/xlink">
    <!-- Generator: Sketch 3.6.1 (26313) - http://www.bohemiancoding.com/sketch -->
    <title>Visa</title>
    <desc>Created with Sketch.</desc>
    <defs></defs>
    <g id="Image-Audit" stroke="none" stroke-width="1" fill="none" fill-rule="evenodd">
        <g id="Visa_Icon" transform="translate(-71.000000, -77.000000)">
            <g id="Visa" transform="translate(71.000000, 77.000000)">
                <rect id="Rectangle-951" fill="#EBEDEE" x="0" y="0" width="37.9352477" height="25.7031166" rx="3"></rect>
                <rect id="Rectangle-951-Copy" fill="#0054A4" x="0" y="0" width="37.9352477" height="5.14062332" rx="3"></rect>
                <rect id="Rectangle-951-Copy-2" fill="#F39C12" transform="translate(18.967624, 23.132805) scale(1, -1) translate(-18.967624, -23.132805) " x="0" y="20.5624933" width="37.9352477" height="5.14062332" rx="3"></rect>
                <path d="M15.1242461,16.8548756 L16.4385514,8.58523901 L18.5395934,8.58523901 L17.2252882,16.8548756 L15.1242461,16.8548756" id="Fill-4" fill="#1B53AF"></path>
                <path d="M24.8464123,8.78790695 C24.4308031,8.62174653 23.777679,8.44091487 22.9639176,8.44091487 C20.8865431,8.44091487 19.4243575,9.56343594 19.412272,11.1701082 C19.3991793,12.3589911 20.455827,13.0219268 21.2522993,13.4168563 C22.0709286,13.821851 22.3458752,14.0809861 22.3428538,14.4431613 C22.3371467,14.9969156 21.689394,15.2507623 21.0852835,15.2507623 C20.2439939,15.2507623 19.7971637,15.1260567 19.1062722,14.8172781 L18.8358576,14.685578 L18.5422791,16.5365436 C19.0319124,16.7670187 19.9401762,16.9666159 20.8828503,16.9773635 C23.0904803,16.9773635 24.5249698,15.8686607 24.5419232,14.152807 C24.5494766,13.210094 23.9895121,12.4956384 22.776927,11.9055471 C22.0427289,11.5223887 21.5922059,11.2682008 21.5974094,10.8800951 C21.5977451,10.5361738 21.9779368,10.168369 22.8009303,10.168369 C23.488129,10.1572803 23.9858193,10.3183228 24.3732288,10.4861892 L24.5618979,10.5808699 L24.8464123,8.78790695" id="Fill-5" fill="#1B53AF"></path>
                <path d="M30.2359031,8.59325702 L28.612241,8.59325702 C28.1086757,8.59325702 27.7320089,8.7397989 27.5111116,9.27905256 L24.3910214,16.8576051 L26.59798,16.8576051 C26.59798,16.8576051 26.9576935,15.838124 27.0394389,15.6144728 C27.2803109,15.6144728 29.4244917,15.6187377 29.7304915,15.6187377 C29.793605,15.9072153 29.9863026,16.8576051 29.9863026,16.8576051 L31.9362751,16.8576051 L30.2359031,8.59325702 M27.6440529,13.9230143 C27.8182864,13.4473929 28.4811461,11.6112692 28.4811461,11.6112692 C28.4687249,11.6331055 28.6542047,11.1324065 28.7601213,10.8220925 L28.9021267,11.535354 C28.9021267,11.535354 29.3054824,13.5093193 29.3884028,13.9230143 L27.6440529,13.9230143" id="Fill-6" fill="#1B53AF"></path>
                <path d="M13.3619357,8.59206285 L11.3052074,14.2299164 L11.0849815,13.0836825 C10.7016005,11.7632702 9.50899019,10.3319705 8.17471018,9.6149559 L10.0556942,16.84754 L12.2796061,16.8461752 L15.5880297,8.59206285 L13.3619357,8.59206285" id="Fill-7" fill="#1B53AF"></path>
                <path d="M9.39635944,8.58626258 L6.00803682,8.58626258 L5.98017288,8.75771147 C8.61684045,9.44282463 10.3610226,11.0960696 11.0849815,13.0836825 L10.3486013,9.28399984 C10.2217029,8.75992922 9.85258954,8.60468694 9.39635944,8.58626258" id="Fill-8" fill="#F39C12"></path>
            </g>
        </g>
    </g>
</svg>