<svg baseProfile="tiny" xmlns="http://www.w3.org/2000/svg" viewBox="0 0 98 24"><g fill="#FFF"><path d="M57.903 12.767c0-2.37-1.013-4.455-4.434-4.455-1.756 0-3.15.493-3.91.933l.555 1.904c.696-.44 1.805-.803 2.853-.803 1.734-.004 2.02.983 2.02 1.615v.15c-3.785-.006-6.175 1.303-6.175 3.973 0 1.63 1.218 3.156 3.335 3.156 1.3 0 2.39-.518 3.043-1.35h.065s.43 1.808 2.814 1.115c-.127-.752-.167-1.554-.167-2.52v-3.718zM55.08 15.27c0 .193-.02.392-.072.566-.218.724-.97 1.337-1.907 1.337-.782 0-1.403-.443-1.403-1.384 0-1.437 1.58-1.835 3.382-1.825v1.305zM0 5.085s2.47 10.128 2.866 11.772c.46 1.92 1.29 2.625 3.68 2.148l1.545-6.28c.392-1.56.654-2.67.906-4.258h.044c.177 1.603.43 2.704.75 4.264 0 0 .628 2.85.95 4.35.323 1.496 1.22 2.438 3.564 1.925l3.677-13.92h-2.97l-1.255 6.018c-.337 1.752-.643 3.122-.88 4.724h-.042c-.213-1.587-.486-2.9-.83-4.608l-1.307-6.135H7.602l-1.398 5.98c-.395 1.816-.767 3.283-1.002 4.832H5.16c-.242-1.458-.563-3.302-.91-5.06 0 0-.83-4.278-1.122-5.753H0zM26.247 12.767c0-2.37-1.012-4.455-4.433-4.455-1.756 0-3.152.493-3.91.933l.555 1.904c.695-.44 1.802-.803 2.852-.803 1.735-.004 2.02.983 2.02 1.615v.15c-3.785-.006-6.174 1.303-6.174 3.973 0 1.63 1.217 3.156 3.332 3.156 1.303 0 2.392-.518 3.045-1.35h.064s.43 1.808 2.812 1.115c-.125-.752-.165-1.554-.165-2.52v-3.718zm-2.825 2.503c0 .193-.016.392-.07.566-.218.724-.97 1.337-1.907 1.337-.782 0-1.404-.443-1.404-1.384 0-1.437 1.582-1.835 3.382-1.825v1.305zM30.616 16.05V5.083h-2.828v13.92h2.828M66.57 5.085v10.27c0 1.415.266 2.407.836 3.013.5.53 1.318.873 2.302.873.835 0 1.658-.157 2.045-.302l-.036-2.208c-.288.07-.62.127-1.074.127-.962 0-1.285-.617-1.285-1.888v-3.93h2.46V8.377h-2.46V5.084h-2.79zM59.272 8.548v10.457h2.916V13.65c0-.288.02-.54.064-.77.216-1.123 1.073-1.84 2.305-1.84.337 0 .58.037.84.075V8.377c-.218-.044-.368-.065-.64-.065-1.09 0-2.328.702-2.846 2.208h-.08V8.548h-2.558zM32.252 8.548v10.457h2.84v-6.133c0-.287.034-.59.135-.855.236-.618.81-1.34 1.726-1.34 1.147 0 1.683.97 1.683 2.368v5.96h2.84v-6.207c0-.274.037-.604.12-.847.23-.7.85-1.274 1.703-1.274 1.162 0 1.72.954 1.72 2.6v5.73h2.84v-6.16c0-3.248-1.65-4.534-3.51-4.534-.826 0-1.477.207-2.065.568-.495.304-.938.735-1.324 1.302h-.04c-.45-1.126-1.506-1.87-2.882-1.87-1.77 0-2.565.896-3.047 1.657h-.04V8.547h-2.7z"/></g><g fill="#FDBB30"><path d="M87.094 8.08c.562 0 1.026-.293 1.09-.67l.554-6.28c0-.62-.728-1.13-1.642-1.13-.913 0-1.64.51-1.64 1.13l.556 6.28c.06.377.524.67 1.084.67h-.002zM83.7 10.04c.282-.485.26-1.032-.036-1.275l-5.16-3.62c-.538-.31-1.342.064-1.8.855-.457.79-.375 1.675.16 1.985l5.714 2.66c.358.134.844-.12 1.124-.607v.003zM90.49 10.038c.282.486.767.74 1.124.608l5.715-2.66c.538-.31.615-1.195.16-1.986-.46-.792-1.264-1.165-1.8-.855l-5.16 3.62c-.296.243-.318.79-.037 1.276l-.002-.002z"/><g><path d="M87.094 15.922c.562 0 1.026.29 1.09.67l.554 6.277c0 .62-.728 1.13-1.642 1.13-.913 0-1.64-.51-1.64-1.13l.556-6.28c.06-.377.524-.668 1.084-.668h-.002zM90.49 13.96c.282-.486.767-.74 1.124-.604l5.715 2.658c.538.31.615 1.195.16 1.987-.46.79-1.264 1.165-1.8.855l-5.16-3.617c-.296-.245-.318-.792-.037-1.278h-.002zM83.7 13.96c.282.487.26 1.033-.036 1.278l-5.16 3.618c-.538.31-1.342-.066-1.8-.855-.458-.79-.375-1.675.16-1.986l5.714-2.658c.358-.134.844.118 1.126.605H83.7z"/></g></g></svg>