<svg xmlns="http://www.w3.org/2000/svg" width="28" height="28" viewBox="0 0 28 28"><path opacity=".12" fill="#010101" stroke="#010101" stroke-width="3" stroke-miterlimit="10" d="M26.308 11.83c-.127-.725-.314-1.43-.56-2.105-.252-.688-.564-1.346-.927-1.97-.362-.632-.78-1.23-1.25-1.784-.464-.554-.98-1.07-1.54-1.54-.55-.463-1.15-.88-1.78-1.25-.625-.36-1.283-.672-1.97-.923-.677-.247-1.38-.434-2.106-.562-.705-.124-1.43-.192-2.17-.192s-1.464.07-2.17.193c-.725.128-1.43.314-2.106.562-.687.25-1.345.564-1.97.926-.632.367-1.23.785-1.784 1.25-.557.47-1.072.985-1.54 1.54-.467.556-.884 1.154-1.25 1.785-.363.624-.675 1.282-.926 1.97-.247.677-.434 1.38-.562 2.105-.124.706-.192 1.43-.192 2.17s.068 1.466.192 2.17c.128.727.315 1.43.562 2.106.25.69.563 1.347.926 1.97.366.634.784 1.23 1.25 1.786.47.558.984 1.073 1.54 1.54.556.467 1.153.885 1.784 1.25.626.363 1.284.676 1.972.927.675.247 1.38.435 2.105.562.704.123 1.428.19 2.168.19.74 0 1.464-.067 2.17-.19.725-.128 1.43-.316 2.105-.563.688-.25 1.346-.562 1.972-.925.63-.365 1.227-.782 1.782-1.25.557-.467 1.072-.982 1.54-1.54.467-.555.885-1.15 1.25-1.782.363-.626.675-1.284.926-1.972.247-.675.434-1.38.56-2.104.126-.705.194-1.43.194-2.17s-.068-1.465-.192-2.17zm-2.698 5.67c-.204.56-.46 1.1-.756 1.61-.3.518-.642 1.006-1.023 1.46-.38.456-.8.878-1.26 1.26-.45.382-.94.724-1.455 1.024-.512.297-1.05.553-1.613.76-.553.2-1.13.352-1.723.457-.578.106-1.17.16-1.776.16-.603 0-1.196-.055-1.773-.156-.593-.103-1.17-.256-1.723-.458-.563-.205-1.1-.46-1.613-.758-.515-.3-1.003-.642-1.46-1.023-.453-.383-.875-.805-1.26-1.26-.38-.454-.722-.942-1.02-1.46-.297-.51-.553-1.05-.758-1.61-.2-.555-.354-1.13-.46-1.724-.102-.577-.157-1.17-.157-1.776 0-.606.055-1.198.156-1.775.105-.594.257-1.17.46-1.724.204-.563.46-1.102.757-1.613.3-.517.64-1.006 1.022-1.46.383-.455.805-.877 1.26-1.26.455-.38.943-.724 1.46-1.023.51-.298 1.05-.554 1.612-.76.553-.203 1.13-.355 1.723-.46.576-.1 1.17-.157 1.774-.157.606 0 1.198.056 1.775.157.59.106 1.17.258 1.72.46.564.205 1.1.46 1.614.758.517.3 1.005.642 1.46 1.023.456.386.877.808 1.26 1.26.382.457.724.945 1.023 1.46.296.51.552 1.05.757 1.615.202.553.355 1.13.46 1.723.1.577.156 1.17.156 1.775 0 .607-.056 1.2-.157 1.777-.104.592-.257 1.17-.46 1.722z"/><path d="M14 2.977c.653 0 1.292.06 1.914.17l.12-.67c-.662-.118-1.34-.182-2.034-.182v.682z" fill="none"/><path fill="#fff" stroke="#fff" stroke-miterlimit="10" d="M21.082 5.562l.438-.523c-.52-.44-1.08-.83-1.67-1.17l-.34.585c.556.323 1.082.69 1.572 1.104zm2.46 2.93l.59-.34c-.342-.592-.732-1.152-1.17-1.672l-.522.44c.41.488.78 1.015 1.102 1.572zm-1.102-1.572l.52-.44c-.437-.52-.92-1.003-1.44-1.44l-.438.523c.49.41.945.865 1.358 1.356zm-4.67-3.278l.234-.64c-.633-.232-1.293-.406-1.97-.526l-.12.67c.64.113 1.26.278 1.857.496zm1.74.816l.34-.59c-.587-.34-1.203-.632-1.847-.867l-.233.645c.607.22 1.187.497 1.74.816zm4.85 5.772l.64-.233c-.235-.644-.528-1.26-.868-1.846l-.59.345c.32.55.595 1.13.817 1.737z"/></svg>